# xmcd
#
# Track frame offsets: 
#        150
#        29589
#        58727
#        81109
#        90276
#        110070
#        142870
#        155617
#        186992
#        207167
#        224888
#        253240
#        283896
#
# Disc length: 4141 seconds
#
# Revision: 5
# Processed by: cddbd v1.5.2PL0 Copyright (c) Steve Scherf et al.
# Submitted via: ExactAudioCopyFreeDBPlugin 1.0
#
DISCID=ca102b0d
DTITLE=Patricia Cornwell - Defekt CD2
DYEAR=2006
DGENRE=Lesung
TTITLE0=12
TTITLE1=13
TTITLE2=14
TTITLE3=15
TTITLE4=16
TTITLE5=17
TTITLE6=18
TTITLE7=19
TTITLE8=20
TTITLE9=21
TTITLE10=22
TTITLE11=23
TTITLE12=24
EXTD=
EXTT0=
EXTT1=
EXTT2=
EXTT3=
EXTT4=
EXTT5=
EXTT6=
EXTT7=
EXTT8=
EXTT9=
EXTT10=
EXTT11=
EXTT12=
PLAYORDER=
